<svg viewBox="-5 -10 113.72972972972973 109.566" version="1.1" xmlns="http://www.w3.org/2000/svg" style="max-height: 500px" width="113.72972972972973" height="109.566">
 <path fill-rule="evenodd" d="m57.473 56.754c0-2.0781-0.84375-3.957-2.2031-5.3203-1.3594-1.3594-3.2422-2.2031-5.3203-2.2031s-3.957 0.84375-5.3203 2.2031c-1.3594 1.3594-2.2031 3.2422-2.2031 5.3203s0.84375 3.957 2.2031 5.3203c1.3594 1.3594 3.2422 2.2031 5.3203 2.2031s3.957-0.84375 5.3203-2.2031c1.3594-1.3594 2.2031-3.2422 2.2031-5.3203zm0.007813-7.5312c1.9258 1.9258 3.1172 4.5898 3.1172 7.5312s-1.1875 5.5938-3.1094 7.5234h5.7266c0.3125 0 0.60547 0.09375 0.84766 0.25l7.8984 4.1211 9.6992-7.9922c0.66406-0.54688 1.6445-0.44922 2.1914 0.21484l3.7031 4.5781c0.50781 0.62891 0.44531 1.5312-0.12109 2.0898l-12.027 12.414c-0.44922 0.46484-1.1172 0.58594-1.6875 0.36719l-8.0703-3.1484v16.273c0 0.86328-0.69922 1.5625-1.5625 1.5625-0.86328 0-1.5625-0.69922-1.5625-1.5625v-18.559h0.003906c0-0.1875 0.035156-0.38281 0.10547-0.56641 0.3125-0.80469 1.2188-1.1992 2.0234-0.88672l9.2383 3.6055 10.367-10.699-1.8359-2.2695-9.2812 7.6484c-0.46875 0.38281-1.1406 0.47656-1.7109 0.17578l-8.5898-4.4805h-25.691l-8.5391 4.457c-0.54688 0.30859-1.2461 0.26953-1.7578-0.15234l-9.2812-7.6484-1.8359 2.2695 10.367 10.699 9.1445-3.5703c0.19922-0.09375 0.42578-0.14453 0.66016-0.14453 0.86328 0 1.5625 0.69922 1.5625 1.5625v18.559c0 0.86328-0.69922 1.5625-1.5625 1.5625-0.86328 0-1.5625-0.69922-1.5625-1.5625v-16.273l-8.0703 3.1523c-0.62891 0.24609-1.3203 0.054687-1.7422-0.42188l-11.992-12.383c-0.55469-0.57031-0.58594-1.4609-0.097657-2.0625l3.6914-4.5664c0.53906-0.67188 1.5234-0.77734 2.1914-0.23828l9.7109 8.0078 8.0234-4.1875c0.23047-0.12109 0.47656-0.17578 0.72266-0.17578v-0.007813h5.6289c-1.9219-1.9258-3.1094-4.5859-3.1094-7.5234s1.1914-5.6016 3.1172-7.5312c1.9258-1.9258 4.5898-3.1172 7.5312-3.1172s5.6016 1.1914 7.5312 3.1172zm-9.0469-12.535c0-0.86328 0.69922-1.5625 1.5625-1.5625 0.86328 0 1.5625 0.69922 1.5625 1.5625v3.8867c0 0.86328-0.69922 1.5625-1.5625 1.5625-0.86328 0-1.5625-0.69922-1.5625-1.5625zm3.1211-4.3789c0.003906 0.85938-0.69141 1.5586-1.5508 1.5625s-1.5586-0.69141-1.5625-1.5508l-0.046875-7.5781c-0.003906-0.85938 0.69141-1.5586 1.5508-1.5625h0.007813v-0.007813c2.0781 0 3.957-0.84375 5.3203-2.2031 1.3594-1.3594 2.2031-3.2422 2.2031-5.3203 0-2.0781-0.84375-3.957-2.2031-5.3203-1.3594-1.3594-3.2422-2.2031-5.3203-2.2031s-3.957 0.84375-5.3203 2.2031c-1.3594 1.3594-2.2031 3.2422-2.2031 5.3203 0 0.86328-0.69922 1.5625-1.5625 1.5625-0.86328 0-1.5625-0.69922-1.5625-1.5625 0-2.9414 1.1914-5.6016 3.1172-7.5312 1.9258-1.9258 4.5898-3.1172 7.5312-3.1172s5.6016 1.1914 7.5312 3.1172c1.9258 1.9258 3.1172 4.5898 3.1172 7.5312 0 2.9414-1.1914 5.6016-3.1172 7.5312-1.5781 1.5781-3.6484 2.6641-5.9648 3.0039l0.039063 6.125z"/>
<text fill="#000000" font-family="Arbeit Regular, Helvetica, Arial-Unicode, Arial, Sans-serif" font-weight="bold" font-size="5.0" y="117.5" x="0.0">Created by Arif</text><text fill="#000000" font-family="Arbeit Regular, Helvetica, Arial-Unicode, Arial, Sans-serif" font-weight="bold" font-size="5.0" y="122.5" x="0.0">from Noun Project</text></svg>