<svg clip-rule="evenodd" fill-rule="evenodd" y="0px" x="0px" viewBox="0 0 182.413644 175.91125649999998" style="max-height: 500px" xml:space="preserve" xmlns:xlink="http://www.w3.org/1999/xlink" xmlns="http://www.w3.org/2000/svg" width="182.413644" height="175.91125649999998"><defs><style type="text/css">
   
    .fil1 {fill:none}
    .fil0 {fill:black}
   
  </style></defs><g><g><path d="M39.7452 43.0435l93.9039 0 0 -25.5116 -93.9039 0 0 25.5116zm95.5746 3.3423l-97.2454 0c-0.9228,0 -1.6717,-0.7485 -1.6717,-1.6712l0.0001 -28.8538c0,-0.9226 0.7484,-1.6711 1.671,-1.6711l97.246 0c0.9228,0 1.6711,0.7485 1.6711,1.6711l0.0006 28.8538c0,0.9226 -0.7491,1.6712 -1.6717,1.6712z" class="fil0"/><path d="M126.784 26.6879l0.0031 0 -0.0031 0zm-9.3724 7.1996l9.2087 0 0 -7.1996 -9.2087 0 0 7.1996zm9.3724 3.342l-9.5392 0c-1.7516,0 -3.1756,-1.4237 -3.1756,-3.1749l0 -7.5304c0,-1.7546 1.4239,-3.1784 3.1751,-3.1784l9.5397 0c1.7507,0 3.1778,1.4239 3.1778,3.1785l0.0001 7.5302c0,1.7513 -1.4274,3.1751 -3.1779,3.175z" class="fil0"/><path d="M102.268 26.6879l0.0031 0 -0.0031 0zm-9.3755 7.1996l9.2086 0 0 -7.1996 -9.2086 0 0 7.1996zm9.3755 3.342l-9.5392 0c-1.7547,0 -3.1789,-1.4237 -3.1789,-3.1749l0.0001 -7.5304c0,-1.7546 1.4239,-3.1784 3.1785,-3.1784l9.5395 0c1.7507,0 3.1745,1.4239 3.1745,3.1785l0.0002 7.5302c0,1.7513 -1.424,3.1751 -3.1747,3.175z" class="fil0"/><path d="M79.6911 31.9589l-34.588 0c-0.9228,0 -1.6715,-0.7487 -1.6715,-1.6712 0.0006,-0.9225 0.7486,-1.671 1.6711,-1.671l34.5884 -0.0001c0.922,0 1.6705,0.7486 1.6705,1.6711 0.0004,0.9225 -0.7486,1.6712 -1.6705,1.6712z" class="fil0"/><path d="M48.3444 58.031c-0.9227,0 -1.6715,-0.7485 -1.6715,-1.6711l0 -11.6453c0,-0.9225 0.7485,-1.671 1.671,-1.671 0.9233,-0.0001 1.6712,0.7485 1.6712,1.671l0.0001 11.6453c0,0.9226 -0.7486,1.6712 -1.6708,1.6711z" class="fil0"/><path d="M125.05 58.031c-0.9227,0 -1.6712,-0.7485 -1.6712,-1.6711l0.0004 -11.6453c0,-0.9225 0.7481,-1.671 1.6707,-1.671 0.9228,-0.0001 1.6712,0.7485 1.6712,1.671l0.0006 11.6453c0,0.9226 -0.7493,1.6712 -1.6717,1.6711z" class="fil0"/><path d="M39.7452 83.5393l93.9039 0 0 -25.5083 -93.9039 0 0 25.5083zm95.5746 3.3422l-97.2454 0c-0.9228,0 -1.6717,-0.7451 -1.6717,-1.6712l0.0001 -28.8504c0,-0.9226 0.7484,-1.671 1.671,-1.671l97.246 0c0.9228,0 1.6711,0.7485 1.6711,1.671l0.0006 28.8504c0,0.9261 -0.7491,1.6712 -1.6717,1.6712z" class="fil0"/><path d="M126.784 67.1836l0.0031 0 -0.0031 0zm-9.3724 7.203l9.2087 0 0 -7.203 -9.2087 0 0 7.203zm9.3724 3.3422l-9.5392 0c-1.7516,0 -3.1756,-1.4239 -3.1756,-3.1786l0 -7.5302c0,-1.7511 1.4239,-3.1751 3.1751,-3.1751l9.5397 0c1.7507,0 3.1778,1.424 3.1778,3.1751l0.0001 7.5302c0,1.7546 -1.4274,3.1787 -3.1779,3.1786z" class="fil0"/><path d="M102.268 67.1836l0.0031 0 -0.0031 0zm-9.3755 7.203l9.2086 0 0 -7.203 -9.2086 0 0 7.203zm9.3755 3.3422l-9.5392 0c-1.7547,0 -3.1789,-1.4239 -3.1789,-3.1786l0.0001 -7.5302c0,-1.7511 1.4239,-3.1751 3.1785,-3.1751l9.5395 0c1.7507,0 3.1745,1.424 3.1745,3.1751l0.0002 7.5302c0,1.7546 -1.424,3.1787 -3.1747,3.1786z" class="fil0"/><path d="M79.6911 72.458l-34.588 0c-0.9228,0 -1.6715,-0.7485 -1.6715,-1.671 0.0006,-0.9228 0.7486,-1.6712 1.6711,-1.6712l34.5884 0c0.922,0 1.6705,0.7485 1.6705,1.6712 0.0004,0.9225 -0.7486,1.671 -1.6705,1.671z" class="fil0"/><path d="M86.6987 123.739c-0.9259,0 -1.6712,-0.7484 -1.6712,-1.6709l0.0004 -36.8578c0,-0.9225 0.7446,-1.671 1.6707,-1.671 0.9228,0 1.671,0.7485 1.671,1.671l0.0007 36.8577c0,0.9226 -0.7492,1.671 -1.6716,1.671z" class="fil0"/><path d="M83.3046 123.739c-0.6893,0 -1.2502,0.5571 -1.2502,1.2464l0 6.7888c0,0.6857 0.5605,1.2463 1.2498,1.2463l6.7854 0c0.6893,0 1.2497,-0.5606 1.2497,-1.2463l0.0006 -6.7888c0,-0.6893 -0.5612,-1.2464 -1.2505,-1.2464l-6.7848 0zm6.785 12.6236l-6.785 0c-2.5309,0 -4.5924,-2.0574 -4.5924,-4.5884l0.0006 -6.7888c0,-2.531 2.0604,-4.5885 4.5914,-4.5885l6.7854 0c2.5309,0 4.5919,2.0575 4.5919,4.5885l0 6.7888c0,2.531 -2.0612,4.5885 -4.5919,4.5884z" class="fil0"/><path d="M80.3836 130.051l-27.6949 0c-0.922,0 -1.6711,-0.7485 -1.6711,-1.671 0.0003,-0.9226 0.7485,-1.6712 1.6711,-1.6712l27.6949 0c0.9227,0 1.6708,0.7487 1.6708,1.6712 0,0.9225 -0.7486,1.671 -1.6708,1.671z" class="fil0"/><path d="M32.2599 100.306c-11.0566,0 -18.7613,4.2264 -18.7613,8.0212 0,3.7948 7.7044,8.0212 18.7613,8.0212 11.0541,0 18.7577,-4.2264 18.7577,-8.0212 0.0003,-3.7948 -7.7043,-8.0212 -18.7577,-8.0212zm0 19.3845c-12.3937,0 -22.0999,-4.9924 -22.0999,-11.3633 0.0001,-6.3745 9.706,-11.3633 22.0999,-11.3633 12.3944,0 22.0999,4.9889 22.0999,11.3633 0.0005,6.3709 -9.706,11.3633 -22.0999,11.3633z" class="fil0"/><path d="M32.2599 132.864c-12.3937,0 -22.0999,-4.9922 -22.0999,-11.3667 0.0001,-0.9226 0.7448,-1.6712 1.671,-1.6712 0.9227,0 1.671,0.7486 1.671,1.6712 0.0005,3.7946 7.701,8.0246 18.7579,8.0246 11.0541,0 18.7577,-4.23 18.7577,-8.0246 0.0003,-0.9226 0.7485,-1.6712 1.6711,-1.6712 0.9227,0 1.6711,0.7486 1.6711,1.6712 0.0005,6.3744 -9.706,11.3667 -22.0999,11.3667z" class="fil0"/><path d="M32.2599 146.034c-12.3937,0 -22.0999,-4.9888 -22.0999,-11.3632 0.0001,-0.9226 0.7448,-1.671 1.671,-1.671 0.9227,0 1.671,0.7484 1.671,1.671 0.0005,3.7946 7.701,8.0211 18.7579,8.0211 11.0541,0 18.7577,-4.2264 18.7577,-8.0211 0.0003,-0.9226 0.7485,-1.671 1.6711,-1.671 0.9227,0 1.6711,0.7484 1.6711,1.671 0.0005,6.3744 -9.706,11.3632 -22.0999,11.3632z" class="fil0"/><path d="M32.2599 159.208c-12.3937,0 -22.0999,-4.9924 -22.0999,-11.3633 0.0001,-0.9226 0.7448,-1.671 1.6675,-1.671 0.9262,0 1.6711,0.7484 1.6711,1.671 0,3.7948 7.7044,8.0212 18.7613,8.0212 11.0541,0 18.7577,-4.2264 18.7577,-8.0212 0.0003,-0.9226 0.7485,-1.671 1.6711,-1.671 0.9227,0 1.6711,0.7484 1.6711,1.671 0.0005,6.3709 -9.706,11.3633 -22.0999,11.3633z" class="fil0"/><path d="M52.6887 149.515c-0.922,0 -1.6711,-0.7485 -1.6711,-1.6711l0.0003 -39.5175c0,-0.9225 0.7482,-1.6709 1.6708,-1.6709 0.9227,0 1.6711,0.7484 1.6711,1.671l0.0005 39.5174c0,0.9226 -0.749,1.6711 -1.6716,1.6711z" class="fil0"/><path d="M11.8278 149.515c-0.9228,0 -1.6678,-0.7485 -1.6678,-1.6711l0.0001 -39.5175c0,-0.9225 0.7447,-1.6709 1.6674,-1.6709 0.9262,0 1.6711,0.7484 1.6711,1.671l0 39.5174c0,0.9226 -0.745,1.6711 -1.6708,1.6711z" class="fil0"/><path d="M120.706 130.051l-27.695 0c-0.9227,0 -1.6713,-0.7485 -1.6713,-1.671 0.0006,-0.9226 0.7485,-1.6712 1.671,-1.6712l27.6953 0c0.9219,0 1.6704,0.7487 1.6704,1.6712 0.0003,0.9225 -0.7486,1.671 -1.6704,1.671z" class="fil0"/><path d="M141.135 100.306c-11.0542,0 -18.7585,4.2264 -18.7585,8.0212 0.0003,3.7948 7.7043,8.0212 18.7578,8.0212 11.0571,0 18.7614,-4.2264 18.7614,-8.0212 0.0005,-3.7948 -7.7045,-8.0212 -18.7607,-8.0212zm0 19.3845c-12.3906,0 -22.1006,-4.9924 -22.1006,-11.3633 0.0001,-6.3745 9.7095,-11.3633 22.0999,-11.3633 12.3943,0 22.1034,4.9889 22.1034,11.3633 0,6.3709 -9.7096,11.3633 -22.1027,11.3633z" class="fil0"/><path d="M141.135 132.864c-12.3906,0 -22.1006,-4.9922 -22.1006,-11.3667 0.0001,-0.9226 0.7484,-1.6712 1.671,-1.6712 0.9226,0 1.6711,0.7486 1.6711,1.6712 0.0003,3.7946 7.7043,8.0246 18.7578,8.0246 11.0571,0 18.7614,-4.23 18.7614,-8.0246 0.0005,-0.9226 0.7448,-1.6712 1.6709,-1.6712 0.9231,0 1.6711,0.7486 1.6711,1.6712 0,6.3744 -9.7096,11.3667 -22.1027,11.3667z" class="fil0"/><path d="M141.135 146.034c-12.3906,0 -22.1006,-4.9888 -22.1006,-11.3632 0.0001,-0.9226 0.7484,-1.671 1.671,-1.671 0.9226,0 1.6711,0.7484 1.6711,1.671 0.0003,3.7946 7.7043,8.0211 18.7578,8.0211 11.0571,0 18.7614,-4.2264 18.7614,-8.0211 0.0005,-0.9226 0.7448,-1.671 1.6709,-1.671 0.9231,0 1.6711,0.7484 1.6711,1.671 0,6.3744 -9.7096,11.3632 -22.1027,11.3632z" class="fil0"/><path d="M141.135 159.208c-12.3906,0 -22.1006,-4.9924 -22.1006,-11.3633 0.0001,-0.9226 0.7484,-1.671 1.671,-1.671 0.9226,0 1.6711,0.7484 1.6711,1.671 0.0003,3.7948 7.7043,8.0212 18.7578,8.0212 11.0571,0 18.7614,-4.2264 18.7614,-8.0212 0.0005,-0.9226 0.7448,-1.671 1.6709,-1.671 0.9231,0 1.6711,0.7484 1.6711,1.671 0,6.3709 -9.7096,11.3633 -22.1027,11.3633z" class="fil0"/><path d="M120.706 149.515c-0.9228,0 -1.6717,-0.7485 -1.6717,-1.6711l0.0001 -39.5175c0,-0.9225 0.7483,-1.6709 1.6709,-1.6709 0.9226,0 1.6711,0.7484 1.6711,1.671l0.0003 39.5174c0,0.9226 -0.7489,1.6711 -1.6707,1.6711z" class="fil0"/><path d="M161.566 149.515c-0.9259,0 -1.6712,-0.7485 -1.6712,-1.6711l0.0005 -39.5175c0,-0.9225 0.7443,-1.6709 1.6704,-1.6709 0.9231,0 1.6711,0.7484 1.6711,1.671l0 39.5174c0,0.9226 -0.7485,1.6711 -1.6708,1.6711z" class="fil0"/></g></g><rect height="173.397" width="173.397" class="fil1"/><text font-family="'Helvetica Neue', Helvetica, Arial-Unicode, Arial, Sans-serif" font-weight="bold" font-size="5px" fill="#000000" y="188.397" x="0">Created by Ehtisham Abid</text><text font-family="'Helvetica Neue', Helvetica, Arial-Unicode, Arial, Sans-serif" font-weight="bold" font-size="5px" fill="#000000" y="193.397" x="0">from the Noun Project</text></svg>