<svg y="0px" x="0px" viewBox="0 0 3128.7157436049383 3014.92407125" version="1.1" xmlns="http://www.w3.org/2000/svg" style="max-height: 500px" width="3128.7157436049383" height="3014.92407125"><g transform="translate(-994.59186,-790.15814)"><path fill="#000000" d="m 1194.5,3760.4382 c -47.1157,-5.859 -90.7959,-27.4214 -124.1482,-61.2847 -61.9424,-62.8915 -77.79332,-158.2885 -39.4878,-237.6535 10.7837,-22.3429 21.3281,-37.4554 38.636,-55.3745 26.1165,-27.0387 58.8677,-46.6039 94.5,-56.4531 19.1251,-5.2865 32.7498,-7.0586 54.5,-7.0888 27.2192,-0.038 47.759,3.2408 70.6488,11.2769 12.4689,4.3776 12.779,4.4434 7.2309,1.5361 l -5.1204,-2.6833 38.2375,-77.1066 c 21.0306,-42.4087 69.7972,-140.613 108.3703,-218.2319 38.5731,-77.6189 70.1101,-141.5189 70.0822,-142 -0.028,-0.4811 -32.1973,-22.4748 -71.4876,-48.8748 -39.2904,-26.4 -71.4426,-48.3805 -71.4494,-48.8456 -0.01,-0.4651 0.9812,-2.2651 2.1954,-4 1.2143,-1.7349 -3.5519,2.8011 -10.5915,10.08 -27.4019,28.3337 -53.2707,44.7093 -88.7505,56.1813 -47.1633,15.2498 -99.1793,12.895 -145.8657,-6.6035 -47.8284,-19.9755 -88.583,-60.0382 -109.674,-107.8122 -12.54256,-28.4106 -17.68941,-53.08 -17.73381,-85 -0.0497,-35.7018 5.55931,-60.3759 20.94151,-92.1228 20.5259,-42.3629 52.8747,-75.1328 95.0215,-96.2586 30.7765,-15.4265 66.0535,-23.111 99.9448,-21.7713 30.0312,1.1871 56.2329,7.4454 82.0606,19.6002 8.8535,4.1666 13.7773,6.8298 25.0687,13.559 l 2.8707,1.7109 -2.5,-2.2244 c -1.375,-1.2234 -3.3592,-2.8274 -4.4092,-3.5644 -1.3723,-0.9631 -1.6242,-1.704 -0.8957,-2.6343 1.7756,-2.2674 172.6097,-225.9425 179.1596,-234.5757 l 6.2829,-8.2813 -49.8188,-66.6885 c -27.4003,-36.6787 -66.1517,-88.5271 -86.1141,-115.2187 l -36.2953,-48.5301 3.7953,-3.2835 c 3.2428,-2.8056 2.5225,-2.5429 -4.948,1.8042 -43.6416,25.3951 -98.6421,34.0348 -148.7567,23.3672 -83.9883,-17.8781 -147.9359,-84.8847 -163.0982,-170.9002 -2.9749,-16.8767 -3.251,-50.1949 -0.5467,-65.9877 6.2108,-36.2714 18.8157,-66.3599 39.4482,-94.1654 9.0366,-12.1782 33.5425,-36.3259 45.1967,-44.5362 27.4134,-19.3124 55.4369,-30.9596 88.9632,-36.9754 14.1041,-2.5307 46.3496,-3.074 60.5368,-1.02 49.5413,7.1727 90.7265,27.8626 124.0408,62.3136 5.5225,5.7109 11.5152,12.1834 13.3173,14.3834 l 3.2764,4 -2.5672,-3.9821 c -1.412,-2.1902 -2.5392,-4.4402 -2.5049,-5 0.034,-0.5599 32.4343,-22.3817 72,-48.493 39.5657,-26.1113 71.9376,-47.6696 71.9376,-47.9074 0,-0.2377 -42.6047,-87.9989 -94.677,-195.0248 -52.0724,-107.026 -98.6475,-202.8012 -103.5002,-212.8338 l -8.823,-18.2411 -13.7499,6.8799 c -16.6578,8.3349 -39.7183,16.0092 -57.7852,19.2303 -17.1183,3.052 -49.8962,3.2935 -66.9647,0.4934 -46.5702,-7.6399 -85.4096,-27.5295 -117.7082,-60.278 -25.4179,-25.7721 -42.308,-54.383 -52.1521,-88.3434 -25.36394,-87.50051 7.8444,-180.54601 82.8603,-232.16378 61.8452,-42.55515 142.6564,-48.51567 210,-15.48932 57.8325,28.36197 99.8614,81.48429 113.391,143.32019 1.6525,7.55285 2.8047,15.24733 4.4674,29.83291 0.188,1.65 0.4094,0.1875 0.4918,-3.25 L 1422,975 h 428 428 l 0.16,6.25 c 0.088,3.4375 0.3075,4.675 0.4877,2.75 3.6825,-39.33595 16.7244,-75.1202 38.5953,-105.89694 10.3984,-14.63266 31.4636,-36.06312 45.9469,-46.74343 39.0749,-28.81491 85.992,-43.18091 133.8101,-40.97262 61.0797,2.82072 116.3888,30.9246 154.712,78.61299 23.8443,29.67113 39.7507,66.91129 44.208,103.5 0.603,4.95 1.2503,10.35 1.4384,12 0.188,1.65 0.4094,0.1875 0.4918,-3.25 L 2698,975 h 440 440 l 0.1329,6.25 c 0.1328,6.24887 0.133,6.24847 0.9876,-2.25 3.0728,-30.55627 14.4979,-63.77158 31.1294,-90.5 12.5866,-20.22799 32.5713,-41.74936 53.0002,-57.07542 69.9029,-52.44231 166.3786,-55.14394 239.7499,-6.71379 50.3822,33.25579 83.5745,85.14079 92.5707,144.70322 6.7281,44.54629 -2.0565,93.42369 -23.7195,131.97449 -28.9038,51.4362 -77.1275,88.6729 -132.3512,102.197 -39.1242,9.5814 -81.7708,7.9598 -117.8671,-4.4817 -6.1231,-2.1105 -12.0329,-4.1395 -13.1329,-4.509 -1.1,-0.3694 -0.088,0.3343 2.25,1.5638 2.3375,1.2295 4.25,2.6321 4.25,3.1168 0,0.8155 -50.0835,100.2917 -165.6474,329.01 -25.5069,50.482 -46.4834,92.189 -46.6144,92.6824 -0.131,0.4933 28.5614,19.3995 63.761,42.0138 35.1996,22.6142 64.3984,41.516 64.8863,42.0039 0.5162,0.5162 -0.015,2.4819 -1.2711,4.7008 -1.9844,3.5065 -1.8209,3.4109 2.0297,-1.1863 7.5555,-9.0204 29.1986,-29.924 37.0532,-35.7871 28.2352,-21.0765 60.2638,-34.642 95.3027,-40.365 13.3988,-2.1884 45.1677,-2.419 59.5,-0.4317 62.7956,8.7067 119.0358,45.7447 151.9719,100.0838 38.7489,63.9293 39.8639,145.5092 2.8839,211 -26.9578,47.7417 -71.8908,83.4704 -123.8558,98.4846 -21.5267,6.2197 -34.7206,7.9839 -59.5,7.956 -18.7037,-0.021 -23.8729,-0.3732 -34.5,-2.3501 -27.4042,-5.0976 -50.7848,-13.7463 -73,-27.0031 -7.241,-4.321 -7.8458,-3.595 -0.9998,1.2002 2.0511,1.4366 0.5445,3.5435 -54.2319,75.845 -30.9878,40.9021 -65.5234,86.5174 -76.7457,101.3674 -11.2223,14.85 -27.2847,36.066 -35.6942,47.1466 l -15.29,20.1466 30.6531,39.3534 c 92.796,119.1343 149.0364,191.5062 149.7383,192.6878 0.5261,0.8858 -0.3374,2.3249 -2.5686,4.2808 -3.2667,2.8637 -3.2066,2.851 2.1388,-0.4527 7.4879,-4.6279 26.4526,-14.0707 35.2691,-17.5609 10.6404,-4.2123 27.5374,-8.7639 41.7309,-11.2411 16.4441,-2.8701 47.8385,-3.1349 64.6216,-0.5452 23.3494,3.6029 42.9609,9.9212 64.8784,20.9022 41.2826,20.6831 77.2527,58.4537 95.9783,100.7825 31.4773,71.1538 21.8549,152.639 -25.3296,214.5 -6.8121,8.931 -25.4812,27.7734 -35.1487,35.4751 -35.775,28.5003 -77.622,44.0565 -123,45.7241 -48.3075,1.7752 -94.5171,-12.5617 -133.6654,-41.4709 -4.859,-3.5882 -15.7752,-13.4991 -24.2582,-22.0243 -8.483,-8.5252 -14.4455,-14.1268 -13.25,-12.4478 1.1955,1.6789 2.1568,3.4331 2.1362,3.8982 -0.021,0.4651 -3.2831,3.0377 -7.25,5.7169 -3.9669,2.6792 -35.004,23.541 -68.9713,46.3595 -33.9673,22.8186 -61.9382,41.7788 -62.1576,42.1338 -0.2194,0.355 13.1009,26.9682 29.6006,59.1404 134.9259,263.0876 195.8157,382.0093 195.8157,382.4407 0,0.2786 -1.6875,1.4437 -3.75,2.5891 -2.0625,1.1455 -2.85,1.7716 -1.75,1.3913 26.7915,-9.2615 39.8512,-12.3862 60.6311,-14.5069 19.9539,-2.0363 49.0418,0.2603 69.7388,5.5062 62.2267,15.7719 114.1411,59.1516 140.4544,117.3636 18.1458,40.1434 23.0247,84.485 14.1622,128.711 -19.3024,96.3226 -106.1171,167.4308 -204.4865,167.4906 -75.5935,0.046 -144.0696,-39.2158 -182.6631,-104.7326 -14.1834,-24.0779 -24.5219,-55.9722 -27.2203,-83.9751 -0.8223,-8.5333 -0.8501,-8.6053 -0.9815,-2.5329 L 3586,3577 h -438 -438 l -0.1347,-6.25 c -0.1301,-6.0361 -0.1657,-5.942 -1.0408,2.75 -6.2725,62.2997 -40.4409,118.5916 -93.2589,153.6424 -49.2475,32.6814 -108.783,42.7874 -166.9275,28.3356 -54.6568,-13.5849 -101.0424,-48.55 -130.3012,-98.22 -14.1834,-24.0779 -24.5219,-55.9722 -27.2203,-83.9751 -0.8223,-8.5333 -0.8501,-8.6053 -0.9815,-2.5329 L 2290,3577 h -430 -430 l -0.1329,-6.25 -0.1329,-6.25 -0.864,8.5 c -2.6272,25.8451 -9.252,48.6033 -21.0815,72.4212 -11.2783,22.7082 -24.199,40.1149 -43.4954,58.5969 -31.0503,29.7399 -68.5225,48.2551 -112.2933,55.4846 -13.8671,2.2903 -42.8173,2.7614 -57.5,0.9355 z m 47,-49.9082 c 57.9087,-8.3002 106.1775,-46.1317 126.9892,-99.53 30.7279,-78.8409 -3.0411,-165.4373 -78.9892,-202.558 -17.7938,-8.697 -28.1205,-11.8811 -48.4227,-14.9304 -60.5529,-9.0949 -124.9471,21.8601 -158.0782,75.9898 -21.6822,35.4246 -28.4151,81.278 -17.9136,121.9986 5.1101,19.8151 13.5365,37.8542 25.5063,54.6038 7.8928,11.0446 24.8245,27.8351 36.4579,36.1539 16.3939,11.7229 40.2384,22.2228 59.6421,26.2633 16.7668,3.4913 38.8254,4.2999 54.8082,2.009 z m 1289.7613,-1.5145 c 54.3521,-11.4769 98.1724,-48.3535 117.6597,-99.0155 15.9016,-41.3402 14.3137,-86.1459 -4.4831,-126.5 -22.1975,-47.6551 -70.7251,-83.099 -123.2391,-90.0122 -62.665,-8.2496 -124.9393,21.6727 -158.1997,76.0136 -21.6822,35.4246 -28.4151,81.278 -17.9136,121.9986 7.401,28.6985 20.9282,52.3705 41.9642,73.4357 13.0335,13.0515 25.8068,22.2892 41.4503,29.9769 18.5069,9.0949 35.2099,14.0733 54,16.095 12.8415,1.3817 37.5678,0.3715 48.7613,-1.9921 z M 3817,3710.5405 c 24.7999,-3.355 46.259,-11.3855 67,-25.073 66.5078,-43.89 90.3416,-129.181 56.4379,-201.9675 -19.4668,-41.7927 -59.7639,-74.8384 -105.5005,-86.516 -67.3038,-17.1842 -139.1636,12.4347 -175.9383,72.5174 -21.6822,35.4246 -28.4151,81.278 -17.9136,121.9986 7.401,28.6985 20.9282,52.3705 41.9642,73.4357 13.0335,13.0515 25.8068,22.2892 41.4503,29.9769 29.7297,14.6101 60.987,19.8911 92.5,15.6279 z M 1860.0477,3527 H 2290 l 0.1363,6.25 0.1362,6.25 0.7936,-8.1986 c 1.5513,-16.0263 5.7513,-34.5576 11.4006,-50.3014 2.5861,-7.2071 9.1535,-22.3898 11.0302,-25.5 3.29,-5.4524 6.5435,-11.5 6.1868,-11.5 -0.2203,0 -2.0438,2.475 -4.0523,5.5 -2.0085,3.025 -3.8823,5.5 -4.1639,5.5 -0.2817,0 -23.7896,-15.6737 -52.2398,-34.8304 -58.4854,-39.3807 -169.0152,-113.7478 -308.4316,-207.5201 l -94.7039,-63.6984 -35.7961,24.368 c -52.0831,35.4552 -274.3269,186.8366 -348.4193,237.3258 -34.9928,23.8453 -63.8584,43.3551 -64.1458,43.3551 -0.2874,0 -1.9663,-2.25 -3.731,-5 -3.5136,-5.4755 -5.3883,-6.9916 -2.1639,-1.75 4.7115,7.6589 11.6362,22.564 15.6798,33.75 5.7747,15.9744 11.2071,40.7943 11.6768,53.3494 0.1871,5.0027 0.2029,4.9711 0.5477,-1.0994 l 0.355,-6.25 z m 1288,0 H 3586 l 0.1363,6.25 0.1362,6.25 0.7936,-8.1986 c 1.5513,-16.0263 5.7513,-34.5576 11.4006,-50.3014 2.5861,-7.2071 9.1535,-22.3898 11.0302,-25.5 3.29,-5.4524 6.5435,-11.5 6.1868,-11.5 -0.2203,0 -2.0438,2.475 -4.0523,5.5 -2.0085,3.025 -3.8584,5.5 -4.111,5.5 -0.4523,0 -43.908,-29.1732 -216.7044,-145.4808 C 3195.1988,3177.8511 3149.1023,3147 3147.9867,3147 c -0.6426,0 -18.115,11.3987 -38.8275,25.3304 -20.7126,13.9318 -74.7842,50.3141 -120.1592,80.8496 -178.6786,120.2436 -300.1677,201.82 -300.5639,201.82 -0.2286,0 -2.059,-2.475 -4.0675,-5.5 -3.9305,-5.9198 -5.8258,-7.6037 -2.5325,-2.25 4.7115,7.6589 11.6362,22.564 15.6798,33.75 5.7747,15.9744 11.2071,40.7943 11.6768,53.3494 0.1871,5.0027 0.2029,4.9711 0.5477,-1.0994 l 0.355,-6.25 z m -796.5973,-122.9103 c 6.0773,-6.2756 9.4321,-10.2131 7.4552,-8.75 -1.9769,1.4632 -4.0019,2.6471 -4.5,2.6311 -0.4981,-0.016 -66.3451,-87.5598 -146.3266,-194.5414 -79.9816,-106.9817 -145.9066,-194.3241 -146.5,-194.0943 -3.2348,1.2528 -160.5438,108.9129 -160.1263,109.5883 0.2102,0.3402 30.0068,20.5546 66.2148,44.921 121.0927,81.4902 337.6416,227.1396 354.5404,238.4615 9.1894,6.1568 16.7269,11.563 16.75,12.0139 0.023,0.4509 -1.3498,2.9259 -3.0509,5.5 l -3.0931,4.6802 3.7935,-4.5 c 2.0864,-2.475 8.7658,-9.6346 14.843,-15.9103 z m 312.5976,15.4801 c -1.6764,-2.4366 -3.0426,-4.7991 -3.0361,-5.25 0.01,-0.4509 18.7927,-13.4198 41.7469,-28.8198 95.6198,-64.1513 142.3613,-95.5662 247.7412,-166.506 61.05,-41.0977 120.3521,-81.0403 131.7825,-88.7613 l 20.7824,-14.0383 -9.2824,-6.4318 c -30.7743,-21.3237 -149.9929,-100.8574 -150.7773,-100.5874 -0.8742,0.301 -75.5178,98.6565 -231.8675,305.5247 -35.0007,46.3099 -64.0977,84.2224 -64.6599,84.25 -0.5621,0.028 -2.8121,-1.3865 -5,-3.1423 -2.1878,-1.7558 1.2169,2.1817 7.566,8.75 6.349,6.5683 12.815,13.6299 14.3687,15.6924 3.9068,5.1862 4.3473,4.7147 0.6355,-0.6802 z m 982.9042,-15.0024 c 5.8013,-6.0129 8.6715,-9.4912 6.3782,-7.7296 l -4.1697,3.203 -49.9184,-65.7704 C 3571.7872,3298.0967 3507.1319,3212.925 3455.564,3145 c -51.568,-67.925 -95.8534,-126.2933 -98.412,-129.7074 -2.5586,-3.4141 -5.102,-6.048 -5.652,-5.8531 -1.4593,0.5169 -155.7862,104.4881 -157.1639,105.8825 -0.8899,0.9007 9.9399,8.6413 46,32.8786 25.9401,17.4353 107.4639,72.2599 181.1639,121.8324 73.7,49.5725 151.8791,102.1323 173.7312,116.7994 21.8522,14.6672 39.7397,27.0365 39.75,27.4874 0.01,0.4509 -1.3731,2.9259 -3.0742,5.5 l -3.0931,4.6802 3.7953,-4.5 c 2.0873,-2.475 8.5417,-9.4196 14.343,-15.4326 z m -2265.013,12.3472 c -1.8602,-2.6124 -1.9856,-3.288 -0.8181,-4.407 0.7584,-0.727 34.0039,-23.5605 73.8789,-50.7412 132.3011,-90.1827 327.2903,-222.9589 341.7083,-232.6834 7.8146,-5.2706 14.2109,-9.808 14.214,-10.083 0,-0.275 -4.5905,-3.5823 -10.2083,-7.3496 -5.6177,-3.7673 -40.9738,-27.5574 -78.5692,-52.867 -66.3413,-44.6618 -68.4079,-45.9625 -70.1459,-44.1504 -1.7329,1.8066 -62.95,83.8549 -211.7961,283.867 -39.293,52.8 -72.2616,96.8611 -73.2636,97.9135 -1.7898,1.88 -1.8884,1.8633 -5.6305,-0.9513 -2.0948,-1.5756 2.0413,3.2748 9.1913,10.7786 7.15,7.5038 13.1431,13.6694 13.3181,13.7012 0.1749,0.032 -0.6706,-1.3304 -1.8789,-3.0274 z m 983.1884,-25.6646 c 1.2438,-1.5861 1.2085,-1.6214 -0.3776,-0.3776 -1.6657,1.3064 -2.1955,2.1276 -1.3724,2.1276 0.2076,0 0.9951,-0.7875 1.75,-1.75 z M 1331.5,3373.392 c -2.3593,-1.8219 -8.3343,-5.0005 -7.2593,-3.8618 0.9367,0.9921 8.09,5.4076 8.7593,5.4068 0.275,-3e-4 -0.4,-0.6956 -1.5,-1.545 z m 1064,-3.6663 c 1.5693,-1.4974 -4.7658,1.9272 -7,3.7841 -1.1,0.9142 -0.2,0.6515 2,-0.5838 2.2,-1.2353 4.45,-2.6755 5,-3.2003 z m 217.5,4.8559 c 0,-0.6213 -6.5937,-4.5824 -7.618,-4.5765 -0.4851,0 0.918,1.1138 3.118,2.4688 4.3021,2.6498 4.5,2.7424 4.5,2.1077 z m 1074,-2.152 c 0,-0.275 -0.9,-0.018 -2,0.5704 -1.1,0.5887 -2,1.2954 -2,1.5704 0,0.275 0.9,0.018 2,-0.5704 1.1,-0.5887 2,-1.2954 2,-1.5704 z m -1106.75,-15.2075 c -3.9875,-2.0125 -7.25,-4.0464 -7.25,-4.5199 0,-0.4734 23.7926,-47.9626 52.8725,-105.5315 C 2734.9669,3031.1984 2796,2910.1703 2796,2909.8095 c 0,-0.2049 -30.3682,-20.8333 -67.485,-45.841 -37.1167,-25.0077 -67.4917,-45.849 -67.5,-46.3141 -0.01,-0.4651 0.9785,-2.2651 2.1927,-4 1.2143,-1.7349 -3.5519,2.8011 -10.5915,10.08 -7.0395,7.2789 -16.6955,16.3344 -21.4577,20.1233 -75.2008,59.8316 -179.3201,61.6035 -256.8239,4.3706 -4.859,-3.5882 -15.6913,-13.414 -24.0717,-21.8352 -8.3804,-8.4212 -14.0521,-13.5206 -12.6037,-11.3319 1.4484,2.1887 2.4551,4.1247 2.2371,4.3022 -0.2179,0.1775 -11.6463,7.9558 -25.3963,17.2852 -68.2733,46.3234 -100.5,68.5741 -100.5,69.3895 0,0.8702 16.6728,35.2573 152.3774,314.2734 34.9924,71.9464 63.6226,131.1793 63.6226,131.6287 0,0.4494 -1.3644,1.3823 -3.0321,2.0731 -6.2246,2.5783 -2.0826,1.7454 8.0521,-1.6192 44.5467,-14.789 98.0442,-13.2543 139.9571,4.0151 12.9647,5.3418 14.8102,5.6263 5.2729,0.8129 z M 2358.1273,3317.25 c -2.1423,-4.2625 -44.4925,-91.225 -94.1115,-193.25 -49.619,-102.025 -90.7337,-186.4852 -91.3661,-187.6892 -1.1075,-2.109 -2.3605,-1.3641 -34.1497,20.3003 -18.15,12.3692 -33.3611,22.8504 -33.8024,23.2916 -0.4414,0.4412 39.3911,54.5311 88.5165,120.1997 49.1254,65.6687 107.032,143.1351 128.6813,172.1476 21.6492,29.0125 39.5343,52.75 39.7446,52.75 0.2103,0 -1.3704,-3.4875 -3.5127,-7.75 z m 485.2534,-260.122 c 47.8244,-63.1869 57.5721,-76.5937 56.4616,-77.6557 -3.6362,-3.4774 -61.3199,-41.3934 -61.971,-40.734 -0.8157,0.826 -189.8713,375.1921 -189.8713,375.9812 0,0.4409 39.1162,-51.1302 195.3807,-257.5915 z M 1449.0641,3203 c 85.5817,-114.9423 156.8883,-210.6857 160.4974,-215.5 l 2.2491,-3 -30.7607,-20.7076 -30.7607,-20.7076 -25.037,50.7076 c -13.7704,27.8892 -55.0344,111.0076 -91.6978,184.7076 -36.6634,73.7 -66.0139,133.325 -65.2235,132.5 0.7905,-0.825 37.1204,-49.425 80.7332,-108 z m 2188.0085,93.75 c -6.8507,-13.1894 -40.6315,-79.0855 -133.542,-260.5 -26.83,-52.3875 -49.1954,-95.25 -49.701,-95.25 -1.12,0 -59.8326,39.2324 -59.8223,39.9739 0,0.2894 37.4666,49.8368 83.25,110.1054 45.7835,60.2686 101.915,134.1811 124.7367,164.25 22.8217,30.0689 41.599,54.6707 41.7274,54.6707 0.1284,0 -2.8636,-5.9625 -6.6488,-13.25 z M 1943.7052,3028.8848 c 47.7371,-32.5133 87.1938,-59.4848 87.6814,-59.9366 0.7744,-0.7174 -171.07,-231.8742 -172.3866,-231.886 -0.275,0 -11.075,14.2085 -24,31.5799 -12.925,17.3715 -52.3628,70.3243 -87.6396,117.6729 l -64.1397,86.0885 34.1397,22.9894 c 18.7768,12.6442 57.3146,38.6353 85.6396,57.7581 28.325,19.1227 52.0423,34.7867 52.7052,34.8088 0.6629,0.022 40.2629,-26.5616 88,-59.075 z m 1287.0764,1.4628 c 45.4951,-30.6089 84.6287,-56.954 86.9636,-58.5448 l 4.2452,-2.8923 -10.4918,-13.7052 c -5.7705,-7.5379 -45.0308,-59.2428 -87.2452,-114.8998 -42.2144,-55.6569 -76.9784,-101.1957 -77.2534,-101.1972 -0.275,0 -12.2618,15.611 -26.6374,34.6944 -26.0757,34.6155 -39.8199,52.7937 -110.0098,145.5001 l -37.1473,49.0639 60.1473,40.5144 c 33.0809,22.2829 72.2972,48.7316 87.1472,58.7749 14.85,10.0433 27.1267,18.2793 27.2816,18.3023 0.1549,0.023 37.5049,-25.0019 83,-55.6107 z M 1703,2862.2394 c 50.089,-67.1431 75.0856,-100.686 114.3365,-153.4279 L 1820.173,2705 h -75.6529 -75.6529 l -48.0847,96.6257 c -37.5765,75.5097 -47.7785,96.8017 -46.6836,97.4308 0.7706,0.4428 16.0261,10.7123 33.9011,22.821 17.875,12.1087 32.95,21.891 33.5,21.7383 0.55,-0.1527 28.225,-36.7721 61.5,-81.3764 z m 1696.5,54.5258 c 17.05,-11.4745 31.0995,-21.1783 31.2212,-21.564 0.1217,-0.3857 -21.5726,-43.2262 -48.2096,-95.2012 l -48.4307,-94.5 -74.9914,-0.2563 -74.9915,-0.2563 65.1073,85.7563 c 35.809,47.166 76.1327,100.2743 89.608,118.0184 l 24.5007,32.2621 2.593,-1.6981 c 1.4262,-0.9339 16.543,-11.0864 33.593,-22.5609 z m -1288.0815,-2.0564 c 20.3052,-13.8709 37.0685,-25.6699 37.2519,-26.2199 0.1833,-0.55 -19.5946,-41.9475 -43.9509,-91.9945 l -44.2842,-90.9944 -81.3085,-0.2559 -81.3085,-0.2559 2.8409,3.8221 c 45.0062,60.551 172.9449,231.1798 173.3209,231.154 0.286,-0.02 17.1332,-11.3846 37.4384,-25.2555 z m 856.9787,-22.7904 c 19.7435,-26.0801 56.8334,-75.0934 82.422,-108.9184 25.5886,-33.825 49.3968,-65.2125 52.9071,-69.75 l 6.3823,-8.25 -77.3043,0.01 -77.3043,0.01 -47,93.0646 c -25.85,51.1855 -47,93.5297 -47,94.0983 0,1.2964 68.6355,47.8002 70,47.4283 0.55,-0.1499 17.1538,-21.6108 36.8972,-47.691 z M 1572.3838,2786.75 1612.8822,2705 H 1513.4411 1414 l -0.1351,-6.25 c -0.1314,-6.0724 -0.1592,-6.0004 -0.9815,2.5329 -2.1968,22.7969 -10.2325,50.52 -20.9327,72.2171 -3.2548,6.6 -5.1378,10.8994 -4.1843,9.5543 0.9535,-1.3452 2.4274,-3.3035 3.2753,-4.3519 1.4732,-1.8214 4.6036,0.159 70.5,44.601 37.9271,25.5789 69.27,46.2122 69.6509,45.8518 0.381,-0.3603 18.917,-37.4427 41.1912,-82.4052 z m 1942.6526,52.3138 c 22.805,-15.3649 52.9198,-35.6607 66.9218,-45.1019 28.1796,-19.0008 25.1737,-17.9203 30.3455,-10.9076 0.992,1.3451 -0.1919,-1.3793 -2.631,-6.0543 -11.5124,-22.0662 -19.8968,-50.1188 -22.5655,-75.5 -0.8145,-7.7461 -0.8454,-7.8176 -0.9742,-2.2549 l -0.133,5.7451 -97.9345,0.2549 -97.9345,0.2549 39.7474,77.5 c 44.2183,86.2177 43.0716,84 43.4336,84 0.1434,0 18.9193,-12.5713 41.7244,-27.9362 z m -656.0734,-53.4784 c 21.7047,-43.0999 39.6297,-78.8634 39.8333,-79.4744 0.2698,-0.8094 -25.3035,-1.111 -94.213,-1.111 H 2710 l -0.1351,-6.25 c -0.1314,-6.0724 -0.1592,-6.0004 -0.9815,2.5329 -2.1968,22.7969 -10.2325,50.52 -20.9327,72.2171 -3.2548,6.6 -5.1378,10.8994 -4.1843,9.5543 5.0133,-7.0726 -0.8554,-10.0675 58.2729,29.7377 29.4034,19.7944 58.4107,39.3931 64.4607,43.5527 6.05,4.1596 11.45,7.5722 12,7.5836 0.55,0.011 18.7584,-35.2429 40.463,-78.3429 z m -606.1277,32.6358 c 55.1355,-37.5616 59.4296,-40.2917 60.6687,-38.572 4.1151,5.7116 4.1731,4.9276 0.1958,-2.6492 -11.4835,-21.8769 -19.9181,-50.0637 -22.5926,-75.5 -0.8151,-7.7525 -0.8453,-7.8221 -0.9742,-2.25 L 2290,2705 h -87 c -47.85,0 -87,0.1412 -87,0.3138 0,0.1727 15.1257,31.3352 33.6127,69.25 18.487,37.9149 35.3555,72.6793 37.4855,77.2542 2.7163,5.8341 4.2504,8.0952 5.1373,7.572 0.6955,-0.4104 27.9654,-18.9363 60.5998,-41.1688 z m -1021.2489,19.3619 c 45.4536,-8.0499 84.9918,-35.1826 109.4145,-75.0845 16.8854,-27.5875 25.1463,-63.2164 22.2003,-95.7486 -2.5835,-28.5287 -10.849,-52.2287 -26.1429,-74.9612 -26.5397,-39.4479 -66.1607,-64.1263 -112.8595,-70.2958 -48.5984,-6.4204 -98.2674,10.6754 -133.3095,45.8844 -47.6973,47.9246 -60.0916,118.6633 -31.6473,180.6226 7.4018,16.1231 19.1403,32.5097 33.3102,46.5 24.9417,24.6256 58.941,40.7335 93.9478,44.5099 10.5656,1.1397 34.952,0.368 45.0864,-1.4268 z m 1299.6749,-0.5676 c 62.0364,-13.0995 109.5159,-58.9749 124.212,-120.0155 10.3286,-42.9002 2.1227,-88.7391 -22.415,-125.2112 -15.9902,-23.7675 -35.8386,-41.4113 -60.8392,-54.0819 -18.3565,-9.3033 -32.4011,-13.768 -51.0203,-16.2191 -49.3064,-6.491 -99.1144,10.5269 -134.3095,45.8896 -47.6973,47.9246 -60.0916,118.6633 -31.6473,180.6226 7.4018,16.1231 19.1403,32.5097 33.3102,46.5 24.9428,24.6266 58.9625,40.7434 93.9478,44.5076 12.8415,1.3817 37.5678,0.3715 48.7613,-1.9921 z M 3817,2838.5405 c 48.5005,-6.5613 90.2481,-33.9227 115.9919,-76.0209 16.9023,-27.6401 25.1559,-63.2307 22.2093,-95.7696 -2.5835,-28.5287 -10.849,-52.2287 -26.1429,-74.9612 -26.2254,-38.9808 -65.6702,-63.6648 -112.3368,-70.2991 -65.1984,-9.2687 -132.6119,26.2501 -163.1666,85.9691 -19.8965,38.8877 -22.8468,85.1246 -8.0744,126.5412 13.6724,38.3329 42.8094,71.1178 79.0195,88.9126 29.7297,14.6101 60.987,19.8911 92.5,15.6279 z m -2290.8968,-183.7862 112.008,-0.2543 31.8516,-64.2061 31.8515,-64.2061 -35.2764,-47.0373 -35.2764,-47.0372 -117.8458,76.6072 c -64.8151,42.134 -118.3855,76.8144 -119.0451,77.0675 -0.6597,0.2532 -2.4057,-1.5981 -3.88,-4.1139 -1.4744,-2.5157 -2.8373,-4.5741 -3.0288,-4.5741 -0.1915,0 2.2942,5.5125 5.5238,12.25 11.3224,23.6203 19.2693,52.6329 20.2012,73.75 0.1575,3.569 0.272,3.2079 0.5535,-1.7457 l 0.3549,-6.2457 z M 2293.5439,2642 c 3.2535,-17.9877 9.6073,-37.1363 18.0838,-54.5 2.9535,-6.05 4.583,-9.8994 3.6211,-8.5543 -0.9618,1.3452 -2.4721,3.34 -3.3561,4.433 -1.5609,1.9297 -4.8737,-0.157 -114.614,-72.1958 C 2135.125,2470.3823 2083.8161,2437 2083.2587,2437 c -0.8455,0 -58.0893,75.7244 -59.0851,78.1602 -0.1796,0.4391 14.8661,32.0827 33.4348,70.3191 L 2091.3696,2655 H 2190.6848 2290 l 0.1329,6.25 0.1329,6.25 0.8703,-8.5 c 0.4787,-4.675 1.5622,-12.325 2.4078,-17 z m 523.9348,13 h 107.3832 l 31.5481,-62.6294 c 17.3515,-34.4461 31.2443,-63.1336 30.8729,-63.75 -1.9799,-3.2857 -67.5951,-89.1706 -68.332,-89.441 -0.4802,-0.1762 -51.9754,32.7863 -114.4339,73.25 -62.4584,40.4637 -113.9819,73.5704 -114.4967,73.5704 -0.5148,0 -2.1227,-2.025 -3.5732,-4.5 -1.4504,-2.475 -2.7938,-4.5 -2.9853,-4.5 -0.1915,0 2.2942,5.5125 5.5238,12.25 11.3224,23.6203 19.2693,52.6329 20.2012,73.75 0.1573,3.5655 0.2723,3.2021 0.5536,-1.75 l 0.355,-6.25 z m 772.0652,-13 c 3.2856,-18.1651 9.7258,-37.5012 18.0687,-54.25 2.9451,-5.9125 5.2044,-10.75 5.0206,-10.75 -0.1839,0 -1.7518,2.2804 -3.4844,5.0676 l -3.1502,5.0676 -2.7493,-1.9057 c -1.5121,-1.0481 -53.5152,-34.6631 -115.5625,-74.6999 -105.8124,-68.2769 -112.8981,-72.6775 -114.1832,-70.9119 -0.7536,1.0352 -16.9362,22.3573 -35.9614,47.3823 -24.6998,32.4893 -34.4901,46.0951 -34.2376,47.5812 0.1944,1.1447 13.9685,28.7072 30.6091,61.25 L 3364.1693,2655 H 3475.0846 3586 l 0.1329,6.25 0.1329,6.25 0.8703,-8.5 c 0.4787,-4.675 1.5622,-12.325 2.4078,-17 z m -1811.8501,-14.25 c -11.1557,-14.9875 -25.2381,-33.8422 -31.2943,-41.8994 l -11.0113,-14.6494 -20.6941,41.4025 c -11.3817,22.7715 -20.6941,41.6262 -20.6941,41.8995 0,0.2732 23.3948,0.4968 51.9885,0.4968 h 51.9884 z m 247.3496,5 c -29.6564,-61.0652 -35.0767,-72.0437 -35.3813,-71.6628 -0.1816,0.227 -15.5418,20.8878 -34.1338,45.9128 -18.5919,25.025 -34.2467,46.0625 -34.7883,46.75 -0.7855,0.997 10.7659,1.25 57.0621,1.25 h 58.0471 z m 1057.2397,21 c -0.529,-0.6875 -13.7015,-18.125 -29.2722,-38.75 -15.5707,-20.625 -29.0082,-38.31 -29.861,-39.3001 -1.4373,-1.6687 -3.0294,1.1409 -21.8167,38.5 -11.1465,22.1651 -20.2813,40.4126 -20.2997,40.5501 -0.018,0.1375 22.9716,0.25 51.0889,0.25 40.7443,0 50.9272,-0.2538 50.1607,-1.25 z m 113.1116,-61.6736 c 26.1829,-34.608 47.6053,-63.2116 47.6053,-63.5635 0,-1.1433 -99.3667,-194.5136 -99.942,-194.4899 -0.3069,0.013 -22.0805,42.7868 -48.3857,95.0539 -32.1453,63.871 -47.5271,95.4232 -46.911,96.227 0.5042,0.6579 22.8471,30.1086 49.6509,65.4461 26.8038,35.3375 49.1039,64.25 49.5558,64.25 0.4518,0 22.2438,-28.3156 48.4267,-62.9236 z m 94.9565,28.1736 c -9.7637,-19.1125 -18.6751,-36.3751 -19.803,-38.3614 l -2.0508,-3.6115 -27.9987,36.9687 c -15.3993,20.3328 -28.3586,37.5955 -28.7984,38.3615 -0.6788,1.1821 6.5482,1.3927 47.8018,1.3927 h 48.6014 z m -1378.2947,-38.5 c 28.7821,-38.6375 52.3564,-70.9497 52.3873,-71.8048 0.052,-1.4385 -97.5247,-203.2269 -98.0113,-202.6872 -0.12,0.1331 -24.072,48.2641 -53.2266,106.9578 l -53.0085,106.7159 48.9822,65.5341 c 26.9402,36.0438 49.334,65.5342 49.764,65.5342 0.4301,0 24.3309,-31.6125 53.1129,-70.25 z M 1371.615,2552.5 c -0.8882,-1.375 -2.351,-3.639 -3.2505,-5.0312 -0.8995,-1.3922 -1.4264,-2.7402 -1.171,-2.9956 0.5261,-0.5261 176.233,-114.8751 211.0052,-137.3209 12.4843,-8.0588 22.5332,-15.1568 22.3309,-15.7734 -0.2023,-0.6166 -16.2668,-22.3561 -35.6987,-48.31 L 1529.5,2295.88 l -2.5,2.8995 c -1.375,1.5948 -7.2564,9.16 -13.0698,16.8116 -34.5491,45.4737 -160.3884,210.1387 -161.4788,211.3005 -1.1056,1.178 -1.9694,0.8772 -5.6287,-1.9603 -2.4177,-1.8747 0.5251,1.7072 6.6773,8.1275 6.05,6.3137 12.78,13.8334 14.9555,16.7104 4.1367,5.4704 5.9314,7.0217 3.1595,2.7308 z m 1296,0 c -0.8882,-1.375 -2.351,-3.639 -3.2505,-5.0312 -0.8995,-1.3922 -1.462,-2.6613 -1.25,-2.8202 0.212,-0.159 31.8855,-20.6986 70.3855,-45.6437 137.7977,-89.2826 154.4998,-100.185 154.4837,-100.8405 -0.024,-1.0003 -68.777,-91.2278 -69.5805,-91.3141 -0.7502,-0.081 -17.2135,21.2703 -109.9032,142.5314 -33,43.1721 -60.46,78.5226 -61.0222,78.5565 -0.5621,0.034 -2.8121,-1.3854 -5,-3.1543 -2.1878,-1.7688 1.262,2.2537 7.6662,8.939 6.4042,6.6853 13.118,14.2075 14.9195,16.7161 3.464,4.8234 5.2877,6.2966 2.5515,2.061 z m -317.6381,-18.9114 c 5.7877,-6.0012 8.9056,-9.7137 6.9287,-8.25 -1.9769,1.4638 -4.0019,2.6342 -4.5,2.6009 -0.4981,-0.033 -14.6995,-18.1458 -31.5586,-40.25 -29.6789,-38.9123 -64.9163,-84.9368 -115.6248,-151.0209 l -24.4253,-31.8313 -33.865,45.3313 c -18.6257,24.9323 -33.8578,45.5564 -33.8491,45.8314 0.01,0.275 36.7811,24.567 81.7165,53.9822 44.9354,29.4153 95.5527,62.6131 112.483,73.773 l 30.7822,20.2907 -3.0933,4.727 -3.0932,4.7271 3.7879,-4.5 c 2.0833,-2.475 8.5233,-9.4101 14.311,-15.4114 z m 1296,-0.021 c 5.7877,-6.0129 8.6583,-9.5004 6.3792,-7.75 -2.2792,1.7505 -4.5292,3.1634 -5,3.1399 -0.4709,-0.023 -21.3311,-26.4001 -46.3561,-58.6148 -91.9574,-118.3768 -125.9601,-161.8292 -126.8745,-162.134 -0.5149,-0.1716 -10.0608,11.7487 -21.2131,26.4897 -11.1524,14.741 -26.4794,34.9583 -34.06,44.9274 l -13.7829,18.1255 63.2152,40.8418 c 34.7684,22.463 85.4903,55.1959 112.7153,72.7397 27.225,17.5439 50.0593,32.4214 50.7428,33.0612 0.9816,0.9187 0.7075,1.9978 -1.3041,5.1347 l -2.547,3.9715 3.781,-4.5 c 2.0796,-2.475 8.5165,-9.4196 14.3042,-15.4326 z M 2638,2521.6224 c 0,-0.2076 -0.7875,-0.9951 -1.75,-1.75 -1.5861,-1.2438 -1.6214,-1.2085 -0.3776,0.3776 1.3064,1.6657 2.1276,2.1955 2.1276,1.3724 z m -232.2309,-29.0087 c 14.3723,-7.2053 23.0096,-10.6084 36.7309,-14.472 40.4757,-11.3972 83.1622,-10.4277 123.4571,2.8039 12.7796,4.1965 32.9865,13.4117 42.0579,19.1802 7.6244,4.8484 7.985,5.0525 7.985,4.5197 0,-0.2599 -1.8099,-1.8035 -4.0221,-3.4304 l -4.0221,-2.9579 89.5051,-116.7481 89.5051,-116.7481 -1.8953,-2.6305 c -1.0425,-1.4468 -42.4182,-55.9555 -91.946,-121.1305 l -90.0507,-118.5 2.3855,-1.777 c 6.7173,-5.0036 6.1596,-5.2198 -1.4595,-0.5658 -64.7836,39.5718 -149.3828,39.552 -216,-0.051 -4.675,-2.7792 -6.9571,-3.8277 -5.0714,-2.3299 1.8857,1.4978 4.333,3.4485 5.4384,4.335 1.9554,1.5681 1.142,2.7745 -30.0051,44.5 -127.7608,171.1517 -146.4692,196.5573 -145.5795,197.6945 0.5136,0.6565 17.9749,23.4687 38.803,50.6937 20.828,27.225 60.9485,79.5978 89.1566,116.384 l 51.2875,66.8841 -4.0148,2.9525 c -5.6578,4.1607 -4.9881,4.3768 1.2353,0.3986 2.8875,-1.8458 10.3211,-5.8983 16.5191,-9.0055 z M 3304.5,2448.0975 c 14.85,-19.6776 27,-36.3516 27,-37.0532 0,-1.2264 -137.2218,-90.696 -137.9166,-89.9226 -0.4385,0.4881 82.754,162.8422 83.4166,162.7915 0.275,-0.021 12.65,-16.138 27.5,-35.8157 z M 3051.6056,2403.75 c 20.9499,-41.3875 37.9851,-75.3865 37.856,-75.5533 -0.1291,-0.1667 -11.8572,7.2583 -26.0625,16.5 -14.2052,9.2418 -42.8511,27.8283 -63.6575,41.3033 -20.8064,13.475 -37.799,24.95 -37.7613,25.5 0.078,1.1349 50.245,67.4957 51.0272,67.4983 0.2791,9e-4 17.6483,-33.8608 38.5981,-75.2483 z m -1286.1553,-5.6145 c 21.2597,-42.5504 38.5143,-77.5043 38.3434,-77.6752 -0.6755,-0.6755 -129.2937,83.5406 -129.2937,84.6584 0,1.0018 51.7067,70.922 52.1481,70.5171 0.081,-0.075 17.5425,-34.9498 38.8022,-77.5003 z m 254.9539,38.167 20.5761,-27.6975 -4.7401,-3.041 c -3.5598,-2.2837 -80.2026,-52.5587 -94.9939,-62.3127 -1.6517,-1.0892 2.0971,7.425 14.0376,31.8813 8.9601,18.3521 22.3478,45.8549 29.7504,61.1174 7.4026,15.2625 13.7595,27.75 14.1265,27.75 0.367,0 9.9265,-12.4639 21.2434,-27.6975 z M 3006.75,2321.8362 c 41.6625,-27.0401 79.9419,-51.8529 85.0653,-55.1395 l 9.3154,-5.9758 -5.8154,-3.7021 c -3.1984,-2.0362 -40.3841,-26.0484 -82.6349,-53.3605 -42.2507,-27.3121 -77.1257,-49.6358 -77.5,-49.6083 -0.3742,0.028 -16.2054,20.3715 -35.1804,45.2088 -18.975,24.8373 -38.0221,49.7568 -42.3269,55.3768 l -7.8268,10.218 40.3239,53.0732 c 22.1782,29.1903 40.4378,53.0732 40.5769,53.0732 0.1391,0 34.3404,-22.1237 76.0029,-49.1638 z M 3399.1126,2323 c 19.3565,-25.575 36.9507,-48.8252 39.0982,-51.6672 l 3.9044,-5.1671 -43.2175,-55.4856 -43.2175,-55.4856 -8.0901,5.2335 c -27.8734,18.0311 -154.141,99.8877 -154.3766,100.079 -0.1576,0.128 31.3218,20.6537 69.9542,45.6128 38.6324,24.9591 76.5613,49.5152 84.2865,54.569 7.7252,5.0539 14.59,9.1039 15.2552,9 0.6652,-0.1038 17.0466,-21.1138 36.4032,-46.6888 z M 2110,2316.3053 c 21.175,-28.3988 38.6229,-51.9289 38.7731,-52.2891 0.3181,-0.7627 -83.2299,-110.0854 -85.1334,-111.3971 -0.8752,-0.6031 -9.1404,4.2392 -26.209,15.3549 -13.7119,8.9297 -50.0035,32.5011 -80.6481,52.3809 -30.6446,19.8798 -55.715,36.3701 -55.712,36.6451 0,0.275 18.928,12.875 42.0554,28 23.1274,15.125 61.0228,39.9579 84.2119,55.1842 23.1892,15.2264 42.6121,27.7003 43.1621,27.7199 0.55,0.019 18.325,-23.1999 39.5,-51.5988 z m -387.979,-2.8388 c 42.0635,-27.3746 78.8939,-51.3256 81.8455,-53.2245 l 5.3665,-3.4525 -15.3665,-10.1623 c -48.6776,-32.1917 -148.7811,-97.6572 -150.1045,-98.165 -1.9833,-0.7611 -83.2257,104.9646 -82.0943,106.8342 0.4005,0.662 18.8947,25.4275 41.0982,55.0345 23.1896,30.9221 40.8819,53.6345 41.573,53.3693 0.6617,-0.2539 35.6187,-22.8591 77.6821,-50.2337 z M 3513.0531,2172.5 c 21.639,-28.6 60.4481,-79.9 86.2425,-114 25.7944,-34.1 47.73,-62.8623 48.7457,-63.9163 1.8147,-1.8829 1.9305,-1.8495 6.6528,1.9223 2.6651,2.1287 -0.5519,-1.6949 -7.2221,-8.5837 -6.6153,-6.8323 -13.7214,-14.4473 -15.7912,-16.9223 l -3.7634,-4.5 2.6877,4.2703 c 1.4781,2.3487 2.5092,4.4414 2.2912,4.6506 -0.5652,0.5421 -75.1239,48.9134 -160.8963,104.3842 -40.425,26.1437 -73.6654,47.6606 -73.8676,47.8154 -0.2022,0.1548 16.6275,22.1362 37.3994,48.8477 20.7718,26.7115 37.8594,48.4461 37.9723,48.2991 0.1129,-0.147 17.9099,-23.6673 39.549,-52.2673 z m -658.3892,4 c 18.0973,-23.65 34.1302,-44.6224 35.6286,-46.6054 l 2.7242,-3.6053 -22.2583,-14.3208 c -72.8546,-46.8736 -209.4494,-135.3496 -210.5012,-136.347 -0.9833,-0.9324 -0.7082,-2.0078 1.3173,-5.15 l 2.56,-3.9715 -3.2697,4 c -1.7984,2.2 -8.6912,9.5932 -15.3173,16.4294 -6.6261,6.8362 -10.1353,10.9611 -7.7981,9.1665 2.3371,-1.7947 4.6618,-3.1129 5.1659,-2.9294 0.764,0.278 55.356,71.866 156.4726,205.1868 18.1695,23.9562 18.9135,24.7864 20.6108,23 0.9685,-1.0193 16.5678,-21.2033 34.6652,-44.8533 z m -578.7584,-83 c 39.7482,-53.35 72.8723,-97.6262 73.6092,-98.3916 1.1385,-1.1824 1.9896,-0.8925 5.6626,1.9294 2.3775,1.8266 -1.0899,-2.2722 -7.7053,-9.1084 -6.6153,-6.8362 -13.7272,-14.4544 -15.8041,-16.9294 l -3.7762,-4.5 2.5542,3.9821 c 1.4047,2.1902 2.5541,4.284 2.5541,4.6529 0,0.6887 -39.56,26.5938 -158.5,103.7909 -37.4,24.2742 -68.1462,44.5598 -68.3248,45.079 -0.1787,0.5193 16.4217,22.782 36.8898,49.4727 l 37.2147,48.5286 11.6783,-15.7531 c 6.423,-8.6642 44.1994,-59.4031 83.9475,-112.7531 z M 3195,2119.7338 c 28.325,-56.2286 51.6179,-102.6838 51.7621,-103.2338 0.335,-1.2784 -102.2356,-133 -103.5661,-133 -0.547,0 -19.7752,24.525 -42.7293,54.5 -22.9541,29.975 -46.1744,60.2114 -51.6007,67.1921 -5.4263,6.9806 -9.866,13.2589 -9.866,13.9517 0,1.5898 103.1046,202.862 103.9078,202.84 0.3257,-0.01 23.7672,-46.0213 52.0922,-102.25 z m -1630.2365,47.2858 c 18.845,-24.7097 34.5008,-45.5448 34.7907,-46.3004 0.359,-0.9353 -9.4588,-7.9221 -30.7635,-21.8929 -17.2099,-11.2855 -66.1657,-43.375 -108.7907,-71.31 -42.625,-27.9349 -77.6559,-50.9224 -77.8464,-51.0833 -0.1905,-0.1608 1.0889,-2.4616 2.843,-5.1127 l 3.1895,-4.8203 -3.7919,4.5 c -2.0855,2.475 -8.9899,9.8763 -15.343,16.4473 -6.3532,6.571 -9.8937,10.7335 -7.8679,9.25 2.0258,-1.4835 4.0508,-2.6816 4.5,-2.6624 0.4492,0.019 37.4145,49.0693 82.1452,109 44.7306,59.9308 81.6306,108.953 82,108.9382 0.3693,-0.015 16.0901,-20.2439 34.935,-44.9535 z m 221.769,-24.7068 c -15.2214,-31.247 -33.6057,-69.0702 -40.8539,-84.0516 -7.2482,-14.9813 -13.4955,-27.1313 -13.8829,-27 -0.3874,0.1314 -13.759,17.3334 -29.7148,38.2268 l -29.0105,37.9881 33.4662,22.0119 c 18.4064,12.1066 49.9907,32.8994 70.1873,46.2062 20.1966,13.3068 36.8927,24.0225 37.1025,23.8128 0.2097,-0.2098 -12.0725,-25.9472 -27.2939,-57.1942 z m 125.6901,-39.43 44.7226,-90.0886 -52.7226,-68.8624 c -28.9974,-37.8744 -52.9476,-68.8582 -53.2226,-68.853 -0.275,0.01 -19.5257,24.9517 -42.7793,55.4368 l -42.2793,55.4273 22.2919,45.7786 c 12.2605,25.1782 34.8862,71.748 50.2793,103.4884 15.393,31.7405 28.2124,57.7216 28.4874,57.7358 0.275,0.014 20.6252,-40.5141 45.2226,-90.0629 z m 1363.85,44.4351 c 26.165,-16.9499 47.646,-31.2679 47.7356,-31.8179 0.2524,-1.5492 -42.0743,-55.6444 -42.8561,-54.7717 -0.3802,0.4244 -14.7513,28.5979 -31.9358,62.6077 l -31.2445,61.836 5.3641,-3.5182 c 2.9502,-1.9349 26.7718,-17.3861 52.9367,-34.3359 z M 1982,2144.6316 c 27.225,-17.7397 49.5,-32.7869 49.5,-33.4383 0,-0.6513 -9.1976,-13.1769 -20.4391,-27.8345 l -20.4391,-26.6503 -2.0322,4.3958 c -1.1177,2.4176 -14.5334,29.4832 -29.8126,60.1457 -15.2793,30.6625 -27.4422,55.7243 -27.0288,55.6928 0.4135,-0.031 23.0268,-14.5715 50.2518,-32.3112 z m 1051.4299,-25.5948 c -15.797,-30.8797 -29.0466,-55.783 -29.4434,-55.3408 -0.3968,0.4422 -9.1154,11.7972 -19.3746,25.2333 -11.4591,15.0075 -18.2956,24.787 -17.726,25.3566 1.5441,1.5441 94.5893,61.5185 94.94,61.1957 0.1792,-0.165 -12.599,-25.5652 -28.396,-56.4448 z m 377.8632,-59.3786 c 23.2138,-15.0544 76.3076,-49.486 117.9862,-76.5149 41.6786,-27.0288 76.1971,-49.1433 76.7078,-49.1433 0.5107,0 2.1153,2.025 3.5658,4.5 1.4504,2.475 2.8623,4.5 3.1376,4.5 0.2752,0 -0.8297,-2.3625 -2.4555,-5.25 -10.8891,-19.3401 -20.4791,-50.8267 -23.0869,-75.8007 -0.8238,-7.8888 -0.8912,-8.0679 -1.0152,-2.6993 L 3586,1865 h -103.2837 -103.2838 l -36.6356,72.75 -36.6355,72.75 30.1693,38.7335 c 18.3893,23.6095 30.6742,38.5505 31.4624,38.2648 0.7112,-0.2577 20.2862,-12.7858 43.5,-27.8401 z m -459.6146,-9.7316 c 14.981,-19.4846 27.2404,-35.8766 27.2431,-36.4266 0,-0.55 -16.9661,-34.075 -37.7084,-74.5 l -37.7132,-73.5 -98.75,-0.2549 -98.75,-0.2549 -0.1351,-6.2451 c -0.1313,-6.063 -0.1599,-5.9891 -0.9815,2.5378 -2.0213,20.9761 -8.5733,45.0783 -17.9997,66.2138 -3.5267,7.9074 -4.271,10.261 -2.6456,8.3652 l 2.2619,-2.6381 54,35.0521 c 119.043,77.2724 182.048,117.6969 182.9701,117.395 0.5336,-0.1747 13.2273,-16.2596 28.2084,-35.7443 z m -776.9311,-30.7644 c 54.8639,-35.6609 106.4761,-69.233 114.6936,-74.6047 8.2176,-5.3718 15.4721,-9.9707 16.1213,-10.2198 0.6491,-0.2491 2.3821,1.5981 3.8511,4.1047 1.469,2.5067 2.9199,4.5576 3.2242,4.5576 0.3043,0 -0.7768,-2.3625 -2.4026,-5.25 -11.0254,-19.5823 -20.73,-51.6814 -23.1184,-76.4671 -0.8223,-8.5333 -0.8501,-8.6053 -0.9815,-2.5329 L 2286,1865 h -99.9737 -99.9738 l -35.0262,70.6605 c -19.2645,38.8633 -35.0263,70.9934 -35.0263,71.4004 0,0.4069 11.3625,15.5418 25.25,33.6331 13.8875,18.0912 27.03,35.2361 29.2055,38.0996 2.1755,2.8635 4.0868,5.2064 4.2474,5.2064 0.1605,0 45.1805,-29.177 100.0445,-64.8378 z M 1668.5,2031.3719 c 20.35,-26.6931 37.3794,-49.3365 37.8431,-50.3187 0.6306,-1.3355 -6.1573,-16.1884 -26.9267,-58.9194 L 1651.6466,1865 H 1540.8233 1430 l -0.1329,-5.75 c -0.124,-5.3686 -0.1914,-5.1895 -1.0152,2.6993 -2.6155,25.048 -12.1242,56.2345 -23.4629,76.9542 -1.3835,2.5281 -1.6995,3.4959 -0.7022,2.1508 0.9973,-1.3452 2.5167,-3.3155 3.3766,-4.3786 1.6712,-2.0663 9.4812,2.9321 178.8981,114.4948 23.9462,15.7688 43.7635,28.6849 44.0385,28.7025 0.275,0.018 17.15,-21.8079 37.5,-48.5011 z m -427,-32.8419 c 69.4336,-9.9521 124.0376,-62.4978 136.0729,-130.9436 10.5545,-60.0246 -14.858,-121.9366 -64.5729,-157.3178 -16.3538,-11.6387 -39.9467,-22.4587 -57.1793,-26.2232 -45.7537,-9.9949 -90.8045,-0.7717 -129.0914,26.4286 -46.4865,33.0257 -71.7314,89.2167 -65.7196,146.2813 3.9462,37.457 20.0828,70.633 47.5425,97.7447 24.9765,24.6599 59.6192,41.0459 93.9478,44.4372 13.004,1.2846 28.3117,1.1248 39,-0.4072 z m 1274.3095,0.4347 c 69.0498,-8.6582 125.681,-62.6646 137.7634,-131.3783 7.6536,-43.5269 -3.3988,-88.484 -30.6288,-124.5864 -32.5452,-43.1495 -89.9378,-68.0782 -142.9441,-62.0883 -67.6825,7.6485 -122.5698,55.0544 -139.0145,120.0663 -14.0183,55.4195 2.2432,112.7222 43.5667,153.522 24.9765,24.6599 59.6192,41.0459 93.9478,44.4372 11.9585,1.1813 28.0128,1.1932 37.3095,0.027 z M 3817,1998.5405 c 48.5005,-6.5613 90.2481,-33.9227 115.9919,-76.0209 27.4826,-44.9418 30.2942,-101.9676 7.446,-151.0196 -19.4668,-41.7927 -59.7639,-74.8384 -105.5005,-86.516 -78.8654,-20.1361 -161.61,23.9821 -189.4577,101.016 -3.5234,9.7468 -6.4733,22.2137 -8.0397,33.978 -8.8686,66.6073 26.7703,133.3063 87.06,162.9346 29.7297,14.6101 60.987,19.8911 92.5,15.6279 z M 3030.7344,1946.75 c 9.3758,-12.2375 27.2313,-35.525 39.6789,-51.75 l 22.632,-29.5 -66.1821,-0.2572 c -36.4002,-0.1414 -66.3807,-0.059 -66.6234,0.184 -0.5403,0.5404 52.0212,103.5175 52.8539,103.55 0.3266,0.013 8.2649,-9.9893 17.6407,-22.2268 z m 267.0156,-30.6781 c 13.8875,-27.4355 25.25,-50.1504 25.25,-50.4774 0,-0.327 -29.2387,-0.5945 -64.9748,-0.5945 h -64.9749 l 39.2249,50.4821 c 21.5736,27.7652 39.4498,50.48 39.7248,50.4774 0.275,0 11.8625,-22.452 25.75,-49.8876 z m -1268.0342,-50.6894 c -0.2189,-0.2189 -27.9332,-0.282 -61.5873,-0.1402 l -61.1894,0.2577 37.2805,48.6968 37.2804,48.6969 24.3069,-48.5566 c 13.3688,-26.7061 24.1278,-48.7357 23.9089,-48.9546 z M 2681,1941 c 0.5887,-1.1 0.8454,-2 0.5704,-2 -0.275,0 -0.9817,0.9 -1.5704,2 -0.5887,1.1 -0.8454,2 -0.5704,2 0.275,0 0.9817,-0.9 1.5704,-2 z m -922.3535,-27.7497 c 8.7112,-11.4127 20.4544,-26.7479 26.096,-34.0783 5.6416,-7.3304 10.2575,-13.5179 10.2575,-13.75 0,-0.2321 -19.7763,-0.422 -43.9474,-0.422 h -43.9474 l 14.5616,29.75 c 8.0089,16.3625 15.6399,32.1361 16.958,35.0525 1.318,2.9163 2.7984,5.054 3.2898,4.7503 0.4914,-0.3037 8.0207,-9.8898 16.7319,-21.3025 z M 1528.6311,1815 c 55.9158,0 98.3914,-0.3786 98.2022,-0.8753 -0.1833,-0.4814 -17.8833,-36.9363 -39.3333,-81.0109 -27.4034,-56.3074 -39.3965,-79.9835 -40.3334,-79.6241 -0.7334,0.2814 -32.1254,20.9698 -69.7601,45.9743 l -68.4266,45.4627 -2.6228,-3.9633 c -1.4426,-2.1799 -2.7578,-3.9634 -2.9227,-3.9634 -0.1649,0 2.5542,5.9625 6.0424,13.25 10.2957,21.5096 17.3851,46.7233 19.27,68.5341 l 0.7532,8.7159 0.2977,-6.25 0.2977,-6.25 z m 761.9484,-17.8034 c 3.4847,-16.9302 8.2308,-30.8754 16.063,-47.1966 6.4469,-13.4345 6.8403,-14.8292 2.2071,-7.8261 l -2.4307,3.6739 -13.9594,-9.0836 c -7.6777,-4.996 -34.4503,-22.4888 -59.4947,-38.8729 -25.0443,-16.384 -46.2192,-30.0517 -47.0553,-30.3725 -1.1822,-0.4537 -9.6371,15.8184 -38.0337,73.1989 l -36.5135,73.7823 87.3188,0.2555 87.3189,0.2554 0.1351,6.2446 c 0.131,6.0522 0.1613,5.9735 0.9832,-2.5589 0.4664,-4.8419 2.0239,-14.5169 3.4612,-21.5 z M 2791.5477,1815 c 46.9988,0 85.4523,-0.2581 85.4523,-0.5735 0,-1.5075 -73.3093,-143.4265 -74.088,-143.4265 -1.053,0 -13.3317,7.8489 -71.8745,45.9439 -23.9044,15.5551 -44.0033,28.4895 -44.6644,28.7432 -0.661,0.2536 -2.4082,-1.5972 -3.8825,-4.113 -1.4744,-2.5157 -2.8373,-4.5741 -3.0288,-4.5741 -0.1915,0 2.31,5.5125 5.5589,12.25 10.3345,21.4313 17.9028,48.0173 19.7118,69.2435 0.7619,8.9403 0.7697,8.9605 1.0652,2.7565 l 0.2977,-6.25 z m 799.0318,-17.8034 c 3.3895,-16.468 8.1641,-30.6824 15.5173,-46.1966 3.2586,-6.875 5.0273,-11.375 3.9304,-10 -1.0968,1.375 -2.2569,3.2875 -2.5781,4.25 -0.3211,0.9625 -1.0792,1.75 -1.6846,1.75 -0.6054,0 -29.1748,-18.0502 -63.4877,-40.1116 -34.3128,-22.0614 -62.5615,-39.937 -62.7748,-39.7237 -0.4593,0.4592 -74.502,147.0768 -74.502,147.5269 0,0.1696 40.725,0.3084 90.5,0.3084 h 90.5 l 0.1351,6.25 c 0.1311,6.0627 0.1606,5.9862 0.9832,-2.5534 0.4664,-4.8419 2.0239,-14.5169 3.4612,-21.5 z M 1804.26,1813.75 c -0.5417,-0.6875 -14.9258,-19.475 -31.9646,-41.75 -94.731,-123.8422 -134.5362,-175.5939 -135.6614,-176.377 -0.8564,-0.596 -8.3699,3.8614 -23.4471,13.9101 -12.2028,8.1329 -22.1869,15.1922 -22.1869,15.6872 0,0.7755 77.2995,160.4255 88.1352,182.0297 l 3.8871,7.75 h 61.1113 c 48.7476,0 60.912,-0.2529 60.1264,-1.25 z m 294.2917,-86 c 23.8851,-47.9875 43.4321,-87.7357 43.4378,-88.3293 0.01,-0.8326 -72.2423,-48.9207 -73.5013,-48.9207 -0.287,0 -165.777,216.2881 -169.6267,221.6945 l -1.9977,2.8055 h 79.1303 79.1303 z M 3090,1814.4508 c 0,-0.3021 -14.9511,-19.7646 -33.2246,-43.25 -83.8552,-107.7721 -136.063,-174.7733 -136.8081,-175.5735 -1.0744,-1.1537 -74.1219,46.4009 -73.7526,48.0137 0.1569,0.6851 19.8603,39.5074 43.7853,86.2716 l 43.5,85.026 78.25,0.031 c 43.0375,0.017 78.25,-0.2164 78.25,-0.5185 z m 302.9715,-87.0411 c 24.2997,-48.1747 43.8905,-87.8872 43.5352,-88.25 -1.8632,-1.9025 -71.1147,-45.8318 -71.7158,-45.4925 -0.7293,0.4117 -23.6059,30.1541 -115.2451,149.8328 -29.0587,37.95 -53.2742,69.5625 -53.8123,70.25 -0.7809,0.9976 14.57,1.25 76.0392,1.25 h 77.0175 z M 3232.5,1683.7314 c 48.95,-63.8989 89.1333,-116.6907 89.2962,-117.315 0.163,-0.6243 -2.537,-2.9271 -6,-5.1175 -3.4629,-2.1904 -43.6462,-27.9853 -89.2962,-57.3221 -45.65,-29.3368 -83.675,-53.3335 -84.5,-53.3259 -1.4192,0.013 -175.9355,113.0583 -178.8986,115.884 -1.1845,1.1295 12.4278,19.0997 88.9293,117.3994 49.6803,63.8361 90.5846,116.0458 90.8985,116.0214 0.314,-0.024 40.6208,-52.3253 89.5708,-116.2243 z m -1294.0344,-5.661 c 47.8311,-62.6253 87.094,-114.2491 87.2508,-114.7195 0.1568,-0.4704 -38.3908,-26.1629 -85.6614,-57.0943 l -85.9464,-56.239 -38.8043,25.6592 c -73.3001,48.4695 -136.8047,90.5315 -137.1041,90.8104 -0.165,0.1535 22.939,30.5942 51.342,67.646 28.4031,37.0517 67.238,87.7239 86.2999,112.6048 19.0618,24.8809 34.8829,45.2287 35.1579,45.2173 0.275,-0.011 39.6345,-51.2596 87.4656,-113.8849 z m 722.889,30.8892 c -1.5457,-2.3357 -2.2901,-4.3816 -1.7642,-4.8492 0.5003,-0.4448 27.4596,-18.0289 59.9096,-39.0756 32.45,-21.0467 59.4006,-38.6377 59.8903,-39.0911 0.5034,-0.4661 -46.5871,-93.4526 -108.3495,-213.9511 -60.082,-117.2198 -109.0826,-213.2697 -108.8903,-213.4443 0.1922,-0.1747 1.9245,-1.3173 3.8495,-2.5393 1.925,-1.222 2.6,-1.8858 1.5,-1.4752 -1.1,0.4107 -4.8737,1.8233 -8.3861,3.1393 -8.8376,3.3112 -27.8266,8.0248 -39.6937,9.853 -31.6463,4.8755 -68.3877,1.711 -97.7873,-8.4223 -6.1231,-2.1105 -12.0329,-4.1471 -13.1329,-4.5258 -1.1,-0.3787 0.3163,0.5738 3.1473,2.1167 l 5.1474,2.8053 -91.4873,184 c -50.3179,101.2 -97.4299,196.15 -104.6932,211 l -13.2059,27 31.5458,20.6463 c 17.3503,11.3555 45.8265,29.9707 63.2807,41.3671 l 31.7347,20.7207 -1.8208,2.6329 c -3.5,5.0613 -3.3058,5.5964 0.4113,1.133 7.0332,-8.4454 28.9241,-29.5295 36.6373,-35.2871 50.0456,-37.3571 112.3538,-50.97 171.7867,-37.5315 39.0574,8.8313 72.5364,26.8477 100.8308,54.2608 5.6731,5.4964 12.8117,13.0455 15.8634,16.7757 3.0518,3.7301 5.729,6.7821 5.9494,6.7821 0.2204,0 -0.8024,-1.8182 -2.273,-4.0404 z M 2856.4048,1576 c 17.3637,-11.275 31.575,-20.725 31.5809,-21 0.01,-0.275 -20.3511,-26.6519 -45.2376,-58.6153 -162.1357,-208.2421 -205.7373,-264.17 -207.6745,-266.3847 -2.6217,-2.9974 10.2166,22.3252 110.3879,217.7319 52.5917,102.5918 77.3434,149.915 78.1673,149.4494 0.6632,-0.3747 15.4124,-9.9063 32.776,-21.1813 z m 656.8338,-86.7699 c 29.0063,-57.6016 70.3315,-139.6051 91.8338,-182.2301 21.5023,-42.625 38.4267,-76.825 37.6096,-76 -3.279,3.3109 -245.9812,320.5837 -246.0779,321.6857 -0.101,1.1501 60.8881,41.1249 62.8959,41.2248 0.55,0.027 24.7324,-47.0789 53.7386,-104.6804 z M 2196.7501,1530.25 c 17.0926,-34.5125 58.3142,-117.5375 91.6036,-184.5 33.2894,-66.9625 60.3726,-121.75 60.1848,-121.75 -0.1877,0 -13.3011,16.9875 -29.1409,37.75 -15.8398,20.7625 -30.874,40.45 -33.4094,43.75 -47.191,61.4222 -185.9799,243.5225 -186.1954,244.3007 -0.2941,1.062 62.7583,43.0499 64.7936,43.1473 0.5975,0.029 15.0712,-28.1855 32.1637,-62.698 z m -609.73,36.7365 c 9.889,-6.6074 17.9799,-12.274 17.9799,-12.5925 0,-0.3185 -7.4723,-10.3249 -16.6052,-22.2365 -9.1328,-11.9116 -38.9168,-50.786 -66.1866,-86.3875 -27.2699,-35.6015 -49.7212,-64.5904 -49.8918,-64.4197 -0.1707,0.1706 10.5383,22.5491 23.7976,49.73 13.2594,27.1808 26.9327,55.2697 30.3851,62.4197 3.4524,7.15 11.1071,22.9 17.0104,35 5.9034,12.1 13.8054,28.4125 17.56,36.25 3.7547,7.8375 7.0841,14.25 7.3987,14.25 0.3146,0 8.663,-5.4061 18.5519,-12.0135 z M 2993.5,1486.8538 c 29.15,-18.9471 64.1003,-41.6278 77.6673,-50.4016 13.567,-8.7737 24.367,-16.2381 24,-16.5875 -0.367,-0.3494 -99.6673,-64.2009 -220.6673,-141.8921 -121,-77.6912 -220.6262,-141.8352 -221.3916,-142.5421 -1.182,-1.0916 -1.063,-1.8612 0.7899,-5.1079 l 2.1816,-3.8226 -3.7388,4.5 c -2.0563,2.475 -8.9368,9.8534 -15.2899,16.3965 -8.681,8.9406 -10.2053,10.8512 -6.1346,7.6893 l 5.4166,-4.2072 2.2092,2.3107 c 1.215,1.2709 49.8224,63.5107 108.0163,138.3107 58.1938,74.8 123.3775,158.5606 144.8526,186.1346 l 39.0456,50.1346 5.0215,-3.233 c 2.7619,-1.7781 28.8716,-18.7352 58.0216,-37.6824 z M 1729,1472.9961 c 42.625,-28.1852 77.9018,-51.614 78.3929,-52.0639 1.0492,-0.9612 15.5125,8.5954 -226.8929,-149.9185 -60.6052,-39.631 -175.7404,-114.9489 -193.7634,-126.7542 l -12.7634,-8.3601 3.1613,-4.6997 c 3.603,-5.3564 2.7038,-4.7342 -2.6021,1.8003 -2.0097,2.475 -8.4641,9.419 -14.3432,15.4311 -6.1525,6.2918 -8.6495,9.2982 -5.8833,7.0837 4.7178,-3.7768 4.8394,-3.8122 6.6308,-1.9311 1.0037,1.054 37.3258,48.2663 80.7158,104.9163 221.017,288.5597 205.5103,268.6254 207.7855,267.1128 1.1341,-0.7539 36.937,-24.4315 79.562,-52.6167 z m 1726.5,-80.2072 c 56.1,-73.2339 119.9384,-156.5833 141.8632,-185.2208 21.9248,-28.6374 40.6871,-52.9304 41.6941,-53.9844 1.7977,-1.8816 1.9177,-1.8469 6.6368,1.92 2.8014,2.2362 0.3516,-0.7183 -5.8736,-7.0837 -5.8737,-6.006 -12.3281,-12.945 -14.3431,-15.42 -5.2617,-6.4628 -6.1245,-7.1105 -2.9432,-2.2096 1.6597,2.5568 2.4175,4.6495 1.8754,5.1792 -0.7886,0.7705 -60.072,39.3481 -377.6928,245.7765 -31.7808,20.655 -57.6558,37.9344 -57.5,38.3987 0.2668,0.7952 162.7139,105.6974 163.7832,105.765 0.275,0.017 46.4,-59.887 102.5,-133.1209 z M 2147.6348,1404.25 c 49.921,-65.3125 113.4538,-148.45 141.1838,-184.75 27.7301,-36.3 50.7822,-66.3946 51.2268,-66.8769 0.4463,-0.4841 2.9687,0.837 5.6315,2.9493 2.938,2.3307 0.6491,-0.4534 -5.8564,-7.1232 -5.8737,-6.022 -12.3281,-12.9742 -14.3431,-15.4492 -5.319,-6.5331 -6.2117,-7.1519 -2.6253,-1.8198 1.7313,2.5741 3.1375,5.0491 3.1248,5.5 -0.013,0.4509 -8.6752,6.5245 -19.25,13.4969 -10.5748,6.9724 -76.1526,50.3974 -145.7285,96.5 -69.5759,46.1026 -156.7572,103.8479 -193.7362,128.3229 -36.9791,24.475 -67.229,44.725 -67.222,45 0.01,0.3772 155.7337,102.7262 156.6444,102.9539 0.1015,0.025 41.0291,-53.3914 90.9502,-118.7039 z M 1959.5,1320.2974 C 2247.096,1129.6359 2297.9891,1096 2298.8755,1096 c 0.5287,0 1.9348,1.575 3.1245,3.5 3.1181,5.0452 3.6698,4.3187 0.6429,-0.8465 -10.8476,-18.5098 -21.105,-52.2434 -23.5263,-77.3706 -0.8223,-8.5333 -0.8501,-8.6053 -0.9815,-2.5329 L 2278,1025 h -428 -428 l -0.133,-6.25 -0.133,-6.25 -0.8182,8 c -2.6225,25.6439 -9.3858,49.3288 -20.4883,71.75 -2.9278,5.9125 -5.1815,10.75 -5.0082,10.75 0.1732,0 1.5302,-1.8364 3.0156,-4.081 1.6447,-2.4853 3.237,-3.8751 4.0724,-3.5546 1.5295,0.5869 53.1927,34.3046 289.4033,188.8772 88.8742,58.1578 162.0394,105.5753 162.5894,105.372 0.55,-0.2032 47.8,-31.3955 105,-69.3162 z m 1264.0554,17.0085 c 143.0678,-93.0283 306.2036,-199.1488 339.7976,-221.0397 18.0691,-11.7744 33.4237,-21.627 34.1212,-21.8947 0.7345,-0.2818 2.3925,1.4316 3.9392,4.0709 1.469,2.5067 2.91,4.5576 3.2021,4.5576 0.2922,0 -0.8023,-2.3625 -2.4323,-5.25 -10.8802,-19.2744 -20.6886,-51.7897 -23.0666,-76.4671 -0.8223,-8.5333 -0.8501,-8.6053 -0.9815,-2.5329 L 3578,1025 h -440 -440 l -0.133,-6.25 -0.133,-6.25 -0.8182,8 c -2.5656,25.0872 -9.2179,48.6864 -20.0139,71 -2.6611,5.5 -4.0652,8.8994 -3.1201,7.5543 0.945,-1.3452 2.4087,-3.2995 3.2526,-4.3429 1.4643,-1.8104 6.7233,1.4363 115,70.9981 62.4061,40.0924 146.5406,94.1182 186.9656,120.0574 40.425,25.9392 93.3,59.9668 117.5,75.6169 24.2,15.6501 44.6999,28.3311 45.5554,28.18 0.8554,-0.1511 37.5304,-23.6672 81.5,-52.2579 z M 2380,1180.6329 c 0,-0.2019 -1.8,-1.5583 -4,-3.0142 -2.2,-1.4559 -4,-2.4319 -4,-2.1689 0,0.4391 7.1203,5.5502 7.7321,5.5502 0.1474,0 0.2679,-0.1652 0.2679,-0.3671 z m 1300,0 c 0,-0.2019 -1.8,-1.5583 -4,-3.0142 -2.2,-1.4559 -4,-2.4319 -4,-2.1689 0,0.4391 7.1203,5.5502 7.7321,5.5502 0.1474,0 0.2679,-0.1652 0.2679,-0.3671 z M 2606.3269,1174.08 c 0.6452,-0.7811 -0.7394,-0.1588 -3.0769,1.3828 -2.3375,1.5417 -4.25,2.9936 -4.25,3.2266 0,0.7213 6.0862,-3.1076 7.3269,-4.6094 z m -1258.1993,-13.83 c 1.2438,-1.5861 1.2085,-1.6214 -0.3776,-0.3776 -1.6657,1.3064 -2.1955,2.1276 -1.3724,2.1276 0.2076,0 0.9951,-0.7875 1.75,-1.75 z m -120.0296,-1.2357 c 60.0381,-5.843 111.9153,-45.554 133.2684,-102.0143 29.1746,-77.1417 -4.1615,-162.36006 -78.1634,-199.81196 -18.7812,-9.50505 -33.3307,-13.81664 -54.4136,-16.12488 -60.8083,-6.65755 -121.3468,23.43186 -153.7903,76.43826 -21.6841,35.42763 -28.4244,81.34882 -17.9069,121.99858 4.9349,19.0732 13.5603,37.7653 24.6874,53.5 8.4197,11.9061 24.9519,28.4268 37.2837,37.2577 10.9841,7.8658 29.5195,17.2555 42.6285,21.5947 21.194,7.0155 43.3535,9.4054 66.4062,7.1619 z m 1279.402,-0.1116 c 57.5355,-6.9791 108.0084,-46.0706 128.9892,-99.9027 16.3668,-41.9935 14.9458,-86.71595 -4.0513,-127.5 -25.3069,-54.3306 -83.868,-91.59536 -143.7603,-91.48048 -55.8922,0.10721 -108.41,29.66285 -137.6785,77.4819 -21.6841,35.42763 -28.4244,81.34882 -17.9069,121.99858 4.9349,19.0732 13.5603,37.7653 24.6874,53.5 8.4197,11.9061 24.9519,28.4268 37.2837,37.2577 16.3545,11.7116 40.2144,22.2206 59.6285,26.2633 15.8396,3.2982 37.2801,4.2652 52.8082,2.3817 z m 1301.7186,-0.3868 c 49.4009,-6.4759 93.004,-35.9968 118.2225,-80.0411 2.5113,-4.3862 6.583,-13.1498 9.0481,-19.4748 30.729,-78.84344 -3.006,-165.35793 -78.9892,-202.57083 -7.15,-3.50172 -16.492,-7.48854 -20.7601,-8.85959 -69.7096,-22.39328 -147.0555,6.72767 -185.7408,69.93184 -21.6841,35.42763 -28.4244,81.34882 -17.9069,121.99858 4.9349,19.0732 13.5603,37.7653 24.6874,53.5 8.4197,11.9061 24.9519,28.4268 37.2837,37.2577 16.3545,11.7116 40.2144,22.2206 59.6285,26.2633 16.9267,3.5246 37.1996,4.2663 54.5268,1.9949 z" style=""/></g><text font-family="'Helvetica Neue', Helvetica, Arial-Unicode, Arial, Sans-serif" font-weight="bold" font-size="5px" fill="#000000" y="2986.8325" x="0">Created by Lucas Rathgeb</text><text font-family="'Helvetica Neue', Helvetica, Arial-Unicode, Arial, Sans-serif" font-weight="bold" font-size="5px" fill="#000000" y="2991.8325" x="0">from the Noun Project</text></svg>